<svg width="140" height="33" viewBox="0 0 140 33" fill="none" xmlns="http://www.w3.org/2000/svg">
<path d="M35.6572 18.1885C35.6572 16.6584 35.9379 15.3151 36.4993 14.1587C37.0783 13.0022 37.859 12.1127 38.8415 11.49C39.824 10.8672 40.9205 10.5559 42.1311 10.5559C43.1662 10.5559 44.0698 10.7694 44.8417 11.1964C45.6312 11.6234 46.2365 12.1838 46.6576 12.8777V10.7694H51.1577V25.661H46.6576V23.5527C46.219 24.2465 45.6049 24.807 44.8154 25.234C44.0434 25.661 43.1399 25.8745 42.1048 25.8745C40.9118 25.8745 39.824 25.5631 38.8415 24.9404C37.859 24.2999 37.0783 23.4014 36.4993 22.245C35.9379 21.0707 35.6572 19.7186 35.6572 18.1885ZM46.6576 18.2152C46.6576 17.0765 46.3418 16.178 45.7102 15.5197C45.0961 14.8615 44.3417 14.5323 43.4469 14.5323C42.5522 14.5323 41.789 14.8615 41.1574 15.5197C40.5433 16.1602 40.2363 17.0498 40.2363 18.1885C40.2363 19.3272 40.5433 20.2345 41.1574 20.9106C41.789 21.5689 42.5522 21.898 43.4469 21.898C44.3417 21.898 45.0961 21.5689 45.7102 20.9106C46.3418 20.2523 46.6576 19.3538 46.6576 18.2152Z" fill="#F3F2F7"/>
<path d="M65.4664 10.6093C67.1858 10.6093 68.5543 11.1786 69.5719 12.3173C70.607 13.4381 71.1245 14.986 71.1245 16.9609V25.661H66.6507V17.5747C66.6507 16.5783 66.3963 15.8044 65.8875 15.2529C65.3787 14.7013 64.6945 14.4256 63.8348 14.4256C62.9751 14.4256 62.2909 14.7013 61.7821 15.2529C61.2733 15.8044 61.0189 16.5783 61.0189 17.5747V25.661H56.5187V10.7694H61.0189V12.7443C61.4751 12.086 62.0891 11.57 62.8611 11.1964C63.633 10.805 64.5015 10.6093 65.4664 10.6093Z" fill="#F3F2F7"/>
<path d="M81.9362 10.5559C82.9713 10.5559 83.8749 10.7694 84.6468 11.1964C85.4363 11.6234 86.0416 12.1838 86.4627 12.8777V10.7694H90.9629V25.6343C90.9629 27.0042 90.6909 28.2407 90.147 29.3438C89.6207 30.4647 88.8049 31.3543 87.6996 32.0126C86.6118 32.6709 85.2521 33 83.6205 33C81.445 33 79.6817 32.4751 78.3308 31.4254C76.9799 30.3935 76.2079 28.988 76.0149 27.2088H80.4625C80.6028 27.7782 80.9362 28.223 81.4625 28.5432C81.9888 28.8812 82.638 29.0503 83.4099 29.0503C84.3398 29.0503 85.0767 28.7745 85.6206 28.223C86.182 27.6892 86.4627 26.8263 86.4627 25.6343V23.526C86.0241 24.2198 85.4188 24.7892 84.6468 25.234C83.8749 25.661 82.9713 25.8745 81.9362 25.8745C80.7256 25.8745 79.6291 25.5631 78.6466 24.9404C77.6641 24.2999 76.8834 23.4014 76.3044 22.245C75.743 21.0707 75.4623 19.7186 75.4623 18.1885C75.4623 16.6584 75.743 15.3151 76.3044 14.1587C76.8834 13.0022 77.6641 12.1127 78.6466 11.49C79.6291 10.8672 80.7256 10.5559 81.9362 10.5559ZM86.4627 18.2152C86.4627 17.0765 86.1469 16.178 85.5153 15.5197C84.9012 14.8615 84.1468 14.5323 83.252 14.5323C82.3573 14.5323 81.5941 14.8615 80.9625 15.5197C80.3484 16.1602 80.0414 17.0498 80.0414 18.1885C80.0414 19.3272 80.3484 20.2345 80.9625 20.9106C81.5941 21.5689 82.3573 21.898 83.252 21.898C84.1468 21.898 84.9012 21.5689 85.5153 20.9106C86.1469 20.2523 86.4627 19.3538 86.4627 18.2152Z" fill="#F3F2F7"/>
<path d="M95.4291 18.1885C95.4291 16.6584 95.7098 15.3151 96.2712 14.1587C96.8502 13.0022 97.6309 12.1127 98.6134 11.49C99.5959 10.8672 100.692 10.5559 101.903 10.5559C102.868 10.5559 103.745 10.7605 104.535 11.1697C105.342 11.5789 105.973 12.1304 106.429 12.8243V5.91229H110.93V25.661H106.429V23.526C106.008 24.2376 105.403 24.807 104.614 25.234C103.842 25.661 102.938 25.8745 101.903 25.8745C100.692 25.8745 99.5959 25.5631 98.6134 24.9404C97.6309 24.2999 96.8502 23.4014 96.2712 22.245C95.7098 21.0707 95.4291 19.7186 95.4291 18.1885ZM106.429 18.2152C106.429 17.0765 106.114 16.178 105.482 15.5197C104.868 14.8615 104.114 14.5323 103.219 14.5323C102.324 14.5323 101.561 14.8615 100.929 15.5197C100.315 16.1602 100.008 17.0498 100.008 18.1885C100.008 19.3272 100.315 20.2345 100.929 20.9106C101.561 21.5689 102.324 21.898 103.219 21.898C104.114 21.898 104.868 21.5689 105.482 20.9106C106.114 20.2523 106.429 19.3538 106.429 18.2152Z" fill="#F3F2F7"/>
<path d="M120.791 5.91229V25.661H116.291V5.91229H120.791Z" fill="#F3F2F7"/>
<path d="M140 17.975C140 18.402 139.974 18.8468 139.921 19.3094H129.736C129.807 20.2345 130.096 20.9462 130.605 21.4444C131.131 21.9247 131.772 22.1649 132.526 22.1649C133.649 22.1649 134.43 21.6845 134.868 20.7238H139.658C139.412 21.7023 138.965 22.583 138.316 23.3658C137.684 24.1487 136.886 24.7625 135.921 25.2073C134.956 25.6521 133.877 25.8745 132.684 25.8745C131.245 25.8745 129.965 25.5631 128.842 24.9404C127.719 24.3177 126.842 23.4281 126.21 22.2717C125.578 21.1152 125.263 19.763 125.263 18.2152C125.263 16.6673 125.57 15.3151 126.184 14.1587C126.815 13.0022 127.693 12.1127 128.815 11.49C129.938 10.8672 131.228 10.5559 132.684 10.5559C134.105 10.5559 135.368 10.8584 136.474 11.4633C137.579 12.0682 138.439 12.9311 139.053 14.0519C139.684 15.1728 140 16.4805 140 17.975ZM135.395 16.7741C135.395 15.9912 135.131 15.3685 134.605 14.9059C134.079 14.4434 133.421 14.2121 132.631 14.2121C131.877 14.2121 131.237 14.4345 130.71 14.8793C130.201 15.324 129.886 15.9556 129.763 16.7741H135.395Z" fill="#F3F2F7"/>
<path d="M0 3.07932C0 1.37866 1.35951 0 3.03655 0H29.3533C31.0303 0 32.3898 1.37866 32.3898 3.07932V29.7667C32.3898 31.4674 31.0303 32.846 29.3533 32.846H3.03655C1.35951 32.846 0 31.4674 0 29.7667V3.07932Z" fill="#1B1726"/>
<path d="M15.7475 22.1382H21.6425V25.661H11.2474V6.92641H15.7475V22.1382Z" fill="#F3F2F7"/>
</svg>
